<?xml version="1.0" encoding="UTF-8"?>
<!DOCTYPE svg PUBLIC "-//W3C//DTD SVG 1.1//EN" "http://www.w3.org/Graphics/SVG/1.1/DTD/svg11.dtd">
<svg version="1.1" xmlns="http://www.w3.org/2000/svg" xmlns:xlink="http://www.w3.org/1999/xlink" x="0" y="0" width="210" height="292" viewBox="0, 0, 210, 292">
  <g id="firefly">
    <g>
      <path d="M134.753,10.608 C136.32,10.608 137.592,9.337 137.592,7.768 C137.592,6.2 136.32,4.929 134.753,4.929 C128.186,4.929 122.842,7.213 118.869,11.72 C115.089,16.01 113.11,21.758 112.117,27.297 C109.628,26.671 107.023,26.335 104.34,26.335 C102.265,26.335 100.241,26.54 98.277,26.919 C97.262,21.498 95.291,15.913 91.596,11.721 C87.624,7.214 82.28,4.929 75.714,4.929 C74.146,4.929 72.873,6.2 72.873,7.768 C72.873,9.337 74.146,10.608 75.714,10.608 C80.644,10.608 84.442,12.197 87.328,15.467 C90.373,18.917 91.981,23.754 92.799,28.506 C80.971,33.124 72.585,44.617 72.585,58.082 C72.585,75.62 86.806,89.835 104.34,89.835 C121.876,89.835 136.087,75.62 136.087,58.082 C136.087,45.26 128.488,34.226 117.551,29.214 C118.328,24.237 119.941,19.088 123.138,15.467 C126.023,12.197 129.822,10.608 134.753,10.608" fill="#332D2B"/>
      <path d="M147.272,84.107 C147.272,107.82 128.045,127.045 104.339,127.045 C80.626,127.045 61.407,107.82 61.407,84.107 C61.407,60.398 80.626,52.489 104.339,52.489 C128.045,52.489 147.272,60.398 147.272,84.107" fill="#E52329"/>
      <path d="M97.798,42.521 C97.798,47.521 93.741,51.566 88.752,51.566 C83.744,51.566 79.688,47.521 79.688,42.521 C79.688,37.514 83.744,33.462 88.752,33.462 C93.741,33.462 97.798,37.514 97.798,42.521" fill="#FEFEFE"/>
      <path d="M88.313,38.931 C88.313,40.773 86.832,42.248 85.002,42.248 C83.172,42.248 81.689,40.773 81.689,38.931 C81.689,37.102 83.172,35.62 85.002,35.62 C86.832,35.62 88.313,37.102 88.313,38.931" fill="#332D2B"/>
      <path d="M129.746,42.521 C129.746,47.521 125.688,51.566 120.701,51.566 C115.691,51.566 111.637,47.521 111.637,42.521 C111.637,37.514 115.691,33.462 120.701,33.462 C125.688,33.462 129.746,37.514 129.746,42.521" fill="#FEFEFE"/>
      <path d="M120.259,38.931 C120.259,40.773 118.779,42.248 116.947,42.248 C115.117,42.248 113.637,40.773 113.637,38.931 C113.637,37.102 115.117,35.62 116.947,35.62 C118.779,35.62 120.259,37.102 120.259,38.931" fill="#332D2B"/>
      <path d="M103.634,92.954 C102.066,92.954 100.794,91.683 100.794,90.115 L100.794,49.296 C100.794,47.728 102.066,46.457 103.634,46.457 C105.202,46.457 106.474,47.728 106.474,49.296 L106.474,90.115 C106.474,91.683 105.202,92.954 103.634,92.954" fill="#332D2B"/>
      <path d="M164.728,244.983 C164.728,268.513 137.794,287.576 104.581,287.576 C71.359,287.576 44.425,268.513 44.425,244.983 C44.425,221.46 71.359,202.392 104.581,202.392 C137.794,202.392 164.728,221.46 164.728,244.983" fill="#FAED21"/>
      <path d="M65.266,240.769 C64.849,240.769 64.432,240.61 64.113,240.291 C63.476,239.655 63.475,238.623 64.112,237.986 L74.438,227.652 C75.075,227.013 76.107,227.013 76.745,227.651 C77.382,228.288 77.383,229.32 76.746,229.956 L66.42,240.29 C66.101,240.61 65.683,240.769 65.266,240.769" fill="#F7B73B"/>
      <path d="M82.501,250.534 C82.247,250.534 81.99,250.475 81.749,250.349 C80.95,249.933 80.64,248.949 81.056,248.15 L87.85,235.104 C88.266,234.305 89.252,233.994 90.05,234.411 C90.849,234.827 91.159,235.811 90.743,236.61 L83.949,249.656 C83.658,250.215 83.09,250.534 82.501,250.534" fill="#F7B73B"/>
      <path d="M145.593,240.769 C145.175,240.769 144.758,240.61 144.44,240.29 L134.114,229.956 C133.477,229.32 133.477,228.288 134.114,227.651 C134.752,227.013 135.784,227.014 136.42,227.652 L146.746,237.986 C147.383,238.623 147.383,239.655 146.745,240.291 C146.427,240.61 146.01,240.769 145.593,240.769" fill="#F7B73B"/>
      <path d="M128.355,250.534 C127.767,250.534 127.198,250.215 126.908,249.656 L120.116,236.61 C119.7,235.811 120.01,234.827 120.809,234.411 C121.606,233.993 122.593,234.305 123.008,235.104 L129.8,248.15 C130.216,248.949 129.906,249.933 129.107,250.349 C128.867,250.475 128.609,250.534 128.355,250.534" fill="#F7B73B"/>
      <path d="M104.79,254.256 C103.89,254.256 103.16,253.527 103.159,252.626 L103.153,238.317 C103.153,237.415 103.883,236.685 104.784,236.685 L104.784,236.685 C105.685,236.685 106.415,237.414 106.415,238.315 L106.421,252.624 C106.421,253.526 105.691,254.256 104.79,254.256 z" fill="#F7B73B"/>
      <path d="M147.272,84.107 C147.272,107.82 128.045,231.148 104.339,231.148 C80.626,231.148 61.407,107.82 61.407,84.107" fill="#605E5E"/>
      <path d="M123.776,204.646 C117.941,220.405 111.33,231.148 104.339,231.148 C97.353,231.148 90.762,220.456 84.937,204.758 z" fill="#F7B73B"/>
      <path d="M78.567,184.492 L130.237,184.492 C130.829,182.347 131.408,180.164 131.98,177.946 L76.83,177.946 C77.402,180.164 77.974,182.347 78.567,184.492" fill="#767575"/>
      <path d="M72.935,161.542 L135.873,161.542 C136.355,159.361 136.823,157.181 137.269,154.996 L71.534,154.996 C71.986,157.181 72.454,159.361 72.935,161.542" fill="#767575"/>
      <path d="M68.368,138.589 L140.443,138.589 C140.844,136.384 141.222,134.203 141.589,132.043 L67.217,132.043 C67.582,134.203 67.967,136.384 68.368,138.589" fill="#767575"/>
      <path d="M145.061,109.092 L63.743,109.092 C64.022,111.196 64.315,113.375 64.646,115.632 L144.165,115.632 C144.489,113.375 144.783,111.196 145.061,109.092" fill="#767575"/>
      <path d="M59.093,86.002 L50.862,75.891 L57.597,70.578 C58.781,69.644 59.028,67.948 58.161,66.715 L45.853,49.206 C44.95,47.923 43.181,47.615 41.897,48.515 C40.614,49.417 40.304,51.189 41.206,52.471 L51.97,67.783 L45.08,73.218 C44.483,73.689 44.1,74.38 44.017,75.137 C43.933,75.893 44.157,76.65 44.637,77.241 L54.888,89.833 C2.981,138.378 4.721,186.912 4.721,186.912 C4.245,202.162 9.57,210.33 15.289,212.937 C16.505,213.723 28.739,218.139 39.006,202.461 L103.28,83.965 L61.445,83.945 C60.648,84.63 59.867,85.316 59.093,86.002" fill="#332D2B"/>
      <path d="M203.99,186.911 C203.99,186.911 205.742,138.1 153.384,89.417 L163.295,77.24 C163.775,76.65 163.999,75.892 163.915,75.136 C163.832,74.38 163.448,73.689 162.851,73.218 L155.963,67.783 L166.731,52.472 C167.634,51.189 167.325,49.417 166.043,48.515 C164.758,47.613 162.988,47.922 162.087,49.204 L149.771,66.714 C148.903,67.947 149.151,69.643 150.335,70.577 L157.07,75.891 L149.167,85.602 C148.54,85.049 147.914,84.496 147.272,83.944 L104.609,83.965 L169.708,202.461 C179.973,218.139 192.208,213.723 193.425,212.936 C199.142,210.329 204.468,202.161 203.99,186.911" fill="#332D2B"/>
    </g>
  </g>
</svg>
